<svg width="34.285706" height="40.000000" viewBox="0 0 34.2857 40" fill="none" xmlns="http://www.w3.org/2000/svg" xmlns:xlink="http://www.w3.org/1999/xlink">
	<desc>
			Created with Pixso.
	</desc>
	<defs/>
	<path id="fa-file-code-o" d="M33.83 10.17C33.54 9.46 33.18 8.89 32.76 8.48L25.8 1.51C25.38 1.1 24.82 0.74 24.1 0.44C23.39 0.14 22.73 -3.82e-6 22.14 -3.82e-6L2.14 -3.82e-6C1.54 -3.82e-6 1.04 0.2 0.62 0.62Q0.32 0.92 0.16 1.29Q0 1.68 0 2.14L0 37.85C0 38.45 0.2 38.95 0.62 39.37C1.04 39.79 1.54 40 2.14 40L32.14 40C32.73 40 33.24 39.79 33.66 39.37C34.07 38.95 34.28 38.45 34.28 37.85L34.28 12.14C34.28 11.54 34.13 10.89 33.83 10.17ZM31.42 14.28L31.42 37.14L2.85 37.14L2.85 2.85L20 2.85L20 12.14C20 12.73 20.2 13.24 20.62 13.66C21.04 14.07 21.54 14.28 22.14 14.28L31.42 14.28ZM22.85 11.42L22.85 3.03C23.28 3.18 23.59 3.34 23.77 3.52L30.75 10.51C30.93 10.69 31.1 10.99 31.25 11.42L22.85 11.42ZM14.3 33.86C14.42 34.02 14.58 34.12 14.77 34.15L16.18 34.37C16.37 34.4 16.55 34.36 16.71 34.26C16.88 34.14 16.97 33.98 17 33.79L20.08 15.24C20.11 15.05 20.07 14.87 19.95 14.7C19.85 14.54 19.7 14.44 19.5 14.41L18.1 14.19C17.9 14.16 17.73 14.21 17.56 14.33C17.4 14.43 17.3 14.58 17.27 14.77L14.19 33.32C14.16 33.51 14.2 33.69 14.3 33.86ZM11.18 16.87C10.98 16.88 10.83 16.97 10.71 17.14L5.66 23.86Q5.51 24.07 5.51 24.28Q5.51 24.49 5.66 24.7L10.71 31.42C10.83 31.59 10.98 31.68 11.18 31.71C11.37 31.73 11.55 31.68 11.71 31.56L12.85 30.71C13.02 30.59 13.11 30.43 13.12 30.24C13.15 30.05 13.11 29.87 12.99 29.7L8.92 24.28L12.99 18.86C13.11 18.69 13.15 18.51 13.12 18.32C13.11 18.13 13.02 17.97 12.85 17.85L11.71 17C11.55 16.88 11.37 16.84 11.18 16.87ZM28.77 24.28Q28.77 24.07 28.61 23.86L23.57 17.14C23.45 16.97 23.29 16.88 23.1 16.87C22.9 16.84 22.73 16.88 22.56 17L21.42 17.85C21.26 17.97 21.16 18.13 21.13 18.32C21.12 18.51 21.17 18.69 21.29 18.86L25.35 24.28L21.29 29.7C21.17 29.87 21.12 30.05 21.13 30.24C21.16 30.43 21.26 30.59 21.42 30.71L22.56 31.56C22.73 31.68 22.9 31.73 23.1 31.71C23.29 31.68 23.45 31.59 23.57 31.42L28.61 24.7Q28.77 24.49 28.77 24.28Z" fill="#FFFFFF" fill-opacity="1.000000" fill-rule="evenodd"/>
</svg>
