<svg width="251" height="78" viewBox="0 0 251 78" fill="none" xmlns="http://www.w3.org/2000/svg">
<g clip-path="url(#clip0_541_2)">
<mask id="mask0_541_2" style="mask-type:luminance" maskUnits="userSpaceOnUse" x="83" y="0" width="168" height="78">
<path d="M250.559 0.199219H83.9741V77.4445H250.559V0.199219Z" fill="white"/>
</mask>
<g mask="url(#mask0_541_2)">
<path d="M134.196 10.3139C133.099 10.3139 132.145 9.95478 131.334 9.23035C130.52 8.509 130.116 7.53073 130.116 6.29855C130.116 5.0664 130.523 4.0881 131.334 3.36675C132.148 2.64542 133.102 2.2832 134.196 2.2832C135.29 2.2832 136.247 2.64542 137.062 3.36675C137.876 4.0881 138.28 5.0664 138.28 6.29855C138.28 7.53073 137.873 8.509 137.062 9.23035C136.247 9.9517 135.293 10.3139 134.196 10.3139ZM146.025 10.3139C144.928 10.3139 143.973 9.95478 143.159 9.23035C142.345 8.509 141.941 7.53073 141.941 6.29855C141.941 5.0664 142.348 4.0881 143.159 3.36675C143.973 2.64542 144.928 2.2832 146.025 2.2832C147.122 2.2832 148.076 2.64542 148.89 3.36675C149.704 4.0881 150.108 5.0664 150.108 6.29855C150.108 7.53073 149.701 8.509 148.89 9.23035C148.076 9.9517 147.122 10.3139 146.025 10.3139Z" fill="white"/>
<path d="M108.799 6.688C107.534 6.96045 106.338 7.1493 105.21 7.24838C104.082 7.35053 102.919 7.50533 101.723 7.70965C100.697 7.87993 99.6716 8.13688 98.6461 8.47433C97.6204 8.81488 96.6726 9.28235 95.7994 9.87985C94.9291 10.4774 94.1676 11.2266 93.5181 12.1275C92.8686 13.0315 92.4056 14.146 92.1321 15.4741C94.3541 14.4184 96.5079 13.889 98.5964 13.889C100.237 13.889 101.76 14.1615 103.162 14.7063C104.563 15.2512 105.785 16.0685 106.829 17.1583C107.87 18.248 108.694 19.604 109.29 21.2201C109.887 22.8392 110.188 24.7184 110.188 26.8669C110.188 29.1826 109.847 31.1919 109.163 32.8946C108.479 34.5974 107.547 36.0214 106.369 37.1606C105.188 38.3031 103.821 39.1544 102.267 39.7149C100.71 40.2784 99.0439 40.5569 97.2661 40.5569C92.5144 40.5569 89.1114 39.1174 87.0601 36.2381C84.9996 33.3684 83.9741 29.1361 83.9741 23.5482C83.9741 19.8703 84.3346 16.7434 85.0526 14.1739C85.7704 11.6043 86.8489 9.45573 88.2846 7.7375C89.7204 6.0193 91.4981 4.6633 93.6176 3.67573C95.7371 2.68814 98.1986 1.90488 101.005 1.32595C102.133 1.08757 103.27 0.908007 104.414 0.790365C105.561 0.672722 106.729 0.474585 107.929 0.202148L108.799 6.6911V6.688ZM91.9766 21.7092C91.9084 22.186 91.8649 22.7309 91.8494 23.3438C91.8306 23.9568 91.8244 24.5017 91.8244 24.9785C91.8244 27.9754 92.2439 30.2414 93.0799 31.7739C93.9159 33.3064 95.3269 34.0741 97.3096 34.0741C98.9849 34.0741 100.265 33.4271 101.157 32.1331C102.046 30.8389 102.49 29.1021 102.49 26.9226C102.49 26.0714 102.388 25.2446 102.183 24.446C101.978 23.6472 101.651 22.9383 101.207 22.3253C100.762 21.7123 100.215 21.2201 99.5659 20.8424C98.9164 20.4678 98.1489 20.282 97.2569 20.282C96.3649 20.282 95.4356 20.3842 94.4629 20.5885C93.4871 20.7928 92.6604 21.1674 91.9766 21.7123V21.7092Z" fill="white"/>
<path d="M140.135 40.5634C138.494 40.5634 136.956 40.3004 135.52 39.7709C134.084 39.2446 132.81 38.4924 131.698 37.5234C130.585 36.5511 129.662 35.3594 128.929 33.9476C128.192 32.5359 127.689 30.9569 127.415 29.2201H121.877V39.8484H114.235V12.973H121.877V22.9881H127.518C127.825 21.3535 128.357 19.8706 129.109 18.5424C129.861 17.2143 130.793 16.0812 131.903 15.1432C133.015 14.2082 134.262 13.4931 135.648 12.9977C137.034 12.5055 138.529 12.2578 140.135 12.2578C141.981 12.2578 143.691 12.5891 145.263 13.2547C146.836 13.9203 148.203 14.8645 149.365 16.0905C150.528 17.3165 151.432 18.7994 152.085 20.5362C152.734 22.273 153.061 24.2141 153.061 26.3596C153.061 28.5049 152.734 30.4554 152.085 32.2106C151.435 33.9661 150.528 35.4646 149.365 36.7059C148.203 37.9506 146.833 38.9041 145.263 39.5666C143.691 40.2291 141.981 40.5634 140.135 40.5634ZM140.135 18.7994C138.563 18.7994 137.313 19.4898 136.39 20.8674C135.467 22.2451 135.004 24.0779 135.004 26.3596C135.004 28.6411 135.467 30.4894 136.39 31.9044C137.313 33.3191 138.56 34.0249 140.135 34.0249C141.711 34.0249 142.957 33.3191 143.88 31.9044C144.803 30.4926 145.266 28.6444 145.266 26.3596C145.266 24.0748 144.803 22.2482 143.88 20.8674C142.957 19.4867 141.708 18.7994 140.135 18.7994Z" fill="white"/>
<path d="M182.193 26.4085C182.193 28.4858 181.935 30.3773 181.425 32.08C180.913 33.7828 180.161 35.2473 179.169 36.4733C178.178 37.699 176.947 38.6528 175.477 39.3338C174.007 40.0148 172.313 40.3553 170.399 40.3553C169.339 40.3553 168.348 40.2533 167.425 40.049C166.502 39.8445 165.613 39.5568 164.758 39.179V43.832H157.116V13.8919C157.8 13.6875 158.586 13.4925 159.475 13.3036C160.364 13.1179 161.296 12.9538 162.269 12.8176C163.245 12.6814 164.236 12.5699 165.243 12.4863C166.25 12.4027 167.217 12.3594 168.143 12.3594C170.365 12.3594 172.348 12.6907 174.091 13.3563C175.835 14.0219 177.304 14.9568 178.501 16.1673C179.698 17.3778 180.611 18.8484 181.245 20.5882C181.876 22.325 182.193 24.2661 182.193 26.4115V26.4085ZM174.399 26.6128C174.399 24.263 173.867 22.3807 172.808 20.9659C171.748 19.5542 170.175 18.8453 168.09 18.8453C167.406 18.8453 166.772 18.87 166.191 18.9227C165.61 18.9722 165.131 19.0341 164.755 19.1022V32.8448C165.234 33.1513 165.858 33.4053 166.626 33.6095C167.394 33.8138 168.174 33.916 168.96 33.916C172.584 33.916 174.396 31.4825 174.396 26.6098L174.399 26.6128Z" fill="white"/>
<path d="M211.478 26.3596C211.478 28.4709 211.17 30.4059 210.555 32.1581C209.939 33.9134 209.051 35.4119 207.888 36.6534C206.726 37.8979 205.331 38.8576 203.708 39.5386C202.083 40.2199 200.262 40.5604 198.245 40.5604C196.228 40.5604 194.456 40.2199 192.834 39.5386C191.209 38.8576 189.816 37.8949 188.654 36.6534C187.492 35.4089 186.584 33.9104 185.935 32.1581C185.285 30.4059 184.959 28.4709 184.959 26.3596C184.959 24.2481 185.292 22.3225 185.96 20.5857C186.625 18.8489 187.551 17.366 188.729 16.14C189.91 14.9141 191.311 13.9605 192.934 13.2794C194.556 12.5983 196.327 12.2578 198.242 12.2578C200.156 12.2578 201.977 12.5983 203.603 13.2794C205.225 13.9605 206.62 14.9141 207.783 16.14C208.945 17.366 209.852 18.8489 210.502 20.5857C211.152 22.3225 211.478 24.2481 211.478 26.3596ZM203.683 26.3596C203.683 24.0098 203.214 22.1615 202.273 20.8148C201.331 19.4681 199.991 18.7963 198.245 18.7963C196.498 18.7963 195.149 19.4681 194.192 20.8148C193.235 22.1615 192.756 24.0067 192.756 26.3596C192.756 28.7124 193.235 30.5761 194.192 31.9539C195.149 33.3346 196.501 34.0219 198.245 34.0219C199.988 34.0219 201.331 33.3314 202.273 31.9539C203.211 30.5731 203.683 28.7094 203.683 26.3596Z" fill="white"/>
<path d="M95.9766 46.0371C98.2329 46.0371 100.113 46.2941 101.617 46.8049C103.121 47.3159 104.327 48.0496 105.232 49.0031C106.136 49.9566 106.779 51.1144 107.155 52.4766C107.531 53.8389 107.718 55.3559 107.718 57.0244V72.8629C106.624 73.1014 105.101 73.3831 103.152 73.7051C101.204 74.0271 98.8451 74.1911 96.0759 74.1911C94.3326 74.1911 92.7506 74.0394 91.3304 73.7299C89.9131 73.4234 88.6886 72.9219 87.6631 72.2221C86.6376 71.5256 85.8514 70.6124 85.3044 69.4884C84.7574 68.3646 84.4839 66.9839 84.4839 65.3494C84.4839 63.7146 84.7979 62.4546 85.4319 61.3649C86.0659 60.2751 86.9111 59.4051 87.9709 58.7581C89.0306 58.1111 90.2426 57.6436 91.6131 57.3526C92.9806 57.0646 94.4009 56.9191 95.8709 56.9191C96.8624 56.9191 97.7419 56.9626 98.5126 57.0461C99.2801 57.1329 99.9049 57.2411 100.383 57.3774V56.6621C100.383 55.3681 99.9919 54.3279 99.2024 53.5446C98.4161 52.7614 97.0486 52.3681 95.1001 52.3681C93.8011 52.3681 92.5176 52.4611 91.2526 52.6499C89.9879 52.8389 88.8939 53.1019 87.9709 53.4426L86.9949 47.3126C87.4394 47.1764 87.9956 47.0309 88.6609 46.8794C89.3289 46.7244 90.0531 46.5914 90.8394 46.4706C91.6256 46.3529 92.4554 46.2509 93.3256 46.1641C94.1989 46.0806 95.0784 46.0371 95.9671 46.0371H95.9766ZM96.5919 68.3151C97.3439 68.3151 98.0619 68.2996 98.7456 68.2624C99.4294 68.2284 99.9764 68.1789 100.387 68.1109V62.3369C100.079 62.2689 99.6189 62.2009 99.0004 62.1326C98.3851 62.0646 97.8194 62.0304 97.3099 62.0304C96.5919 62.0304 95.9144 62.0739 95.2836 62.1574C94.6496 62.2441 94.0964 62.4051 93.6176 62.6434C93.1391 62.8819 92.7631 63.2069 92.4896 63.6156C92.2161 64.0241 92.0794 64.5351 92.0794 65.1481C92.0794 66.3399 92.4804 67.1666 93.2851 67.6246C94.0869 68.0861 95.1904 68.3151 96.5919 68.3151Z" fill="white"/>
<path d="M120.441 56.1257C121.175 55.4104 121.961 54.6272 122.803 53.7789C123.645 52.9307 124.46 52.0917 125.249 51.2589C126.038 50.4292 126.79 49.6182 127.499 48.8257C128.208 48.0362 128.848 47.3427 129.417 46.7482H138.7C138.022 47.4697 137.18 48.3582 136.17 49.4139C135.16 50.4694 134.091 51.5654 132.963 52.7079C131.834 53.8502 130.697 54.9802 129.55 56.1039C128.403 57.2279 127.325 58.2217 126.312 59.0854C127.334 59.8717 128.422 60.8469 129.581 62.0109C130.74 63.1749 131.875 64.4194 132.987 65.7447C134.1 67.0727 135.16 68.4164 136.167 69.7817C137.174 71.1469 138.034 72.4254 138.749 73.6204H130.051C129.435 72.6979 128.73 71.7352 127.943 70.7259C127.154 69.7197 126.34 68.7259 125.495 67.7444C124.649 66.7662 123.785 65.8467 122.906 64.9892C122.023 64.1317 121.203 63.3949 120.444 62.7787V73.6174H112.802V46.7422H120.444V56.1164L120.441 56.1257Z" fill="white"/>
<path d="M164.242 67.3915H168.808V77.4408H162.294V73.6236H141.008V46.748H148.65V67.3883H156.6V46.748H164.242V67.3883V67.3915Z" fill="white"/>
<path d="M170.293 60.392C170.293 58.008 170.66 55.9215 171.396 54.132C172.133 52.3425 173.096 50.8535 174.296 49.6615C175.493 48.4697 176.869 47.5657 178.423 46.9527C179.98 46.3397 181.578 46.0332 183.219 46.0332C187.047 46.0332 190.074 47.2002 192.296 49.5347C194.518 51.869 195.631 55.2992 195.631 59.8285C195.631 60.2712 195.612 60.7572 195.578 61.2835C195.544 61.813 195.51 62.2802 195.476 62.689H178.14C178.311 64.2555 179.045 65.5 180.347 66.4195C181.646 67.339 183.389 67.8002 185.577 67.8002C186.979 67.8002 188.356 67.6735 189.704 67.4165C191.053 67.1595 192.157 66.8467 193.011 66.4722L194.037 72.6547C193.627 72.859 193.08 73.0632 192.396 73.2677C191.712 73.472 190.951 73.6515 190.115 73.8032C189.276 73.955 188.377 74.085 187.42 74.187C186.463 74.2892 185.506 74.342 184.549 74.342C182.121 74.342 180.008 73.9827 178.215 73.2677C176.419 72.5525 174.933 71.5742 173.752 70.3297C172.571 69.0849 171.701 67.6145 171.135 65.9087C170.573 64.206 170.29 62.367 170.29 60.392H170.293ZM188.244 57.4787C188.21 56.8317 188.098 56.2 187.911 55.587C187.722 54.974 187.433 54.4292 187.038 53.9525C186.643 53.4757 186.149 53.0825 185.549 52.776C184.95 52.4695 184.207 52.3147 183.318 52.3147C182.429 52.3147 181.727 52.4602 181.111 52.7482C180.496 53.0392 179.983 53.42 179.573 53.8967C179.163 54.3735 178.846 54.9277 178.625 55.556C178.401 56.1877 178.24 56.8255 178.137 57.4725H188.241L188.244 57.4787Z" fill="white"/>
<path d="M222.915 73.6272H215.273V62.999H207.323V73.6272H199.681V46.752H207.323V56.767H215.273V46.752H222.915V73.6272Z" fill="white"/>
<path d="M250.559 52.984H241.941V73.6242H234.299V52.984H225.681V46.752H250.557V52.984H250.559Z" fill="white"/>
</g>
<mask id="mask1_541_2" style="mask-type:luminance" maskUnits="userSpaceOnUse" x="0" y="1" width="75" height="75">
<path d="M74.1844 1.94922H0.474121V75.6595H74.1844V1.94922Z" fill="white"/>
</mask>
<g mask="url(#mask1_541_2)">
<path d="M33.8971 22.0903C35.6371 20.3503 38.4671 20.3503 40.2071 22.0903C41.9471 23.8303 41.9471 26.6601 40.2071 28.4001L13.5464 55.0608L15.6816 57.1958L55.7204 17.1572L42.7374 4.18058C39.7609 1.20413 34.8979 1.20413 31.9214 4.18058L2.705 33.3971C-0.271457 36.3736 -0.271457 41.2365 2.705 44.2131L7.2366 48.7446L33.8971 22.0903Z" fill="white"/>
<path d="M71.9536 33.3969L62.0236 23.4668L21.9912 63.4991L31.9211 73.4291C34.8976 76.4056 39.7606 76.4056 42.7371 73.4291L71.9536 44.2126C74.9301 41.2364 74.9301 36.3731 71.9536 33.3969Z" fill="white"/>
</g>
</g>
<defs>
<clipPath id="clip0_541_2">
<rect width="250.25" height="77.25" fill="white" transform="translate(0.474121 0.199219)"/>
</clipPath>
</defs>
</svg>
