<svg width="391" height="135" viewBox="0 0 391 135" fill="none" xmlns="http://www.w3.org/2000/svg">
<path d="M142.24 17.2345C143.661 15.7076 143.661 13.2319 142.24 11.7049C140.818 10.178 138.513 10.178 137.092 11.7049L110.039 40.7612C108.618 42.2881 108.618 44.7638 110.039 46.2908C111.461 47.8177 113.766 47.8177 115.188 46.2908L142.24 17.2345Z" fill="white"/>
<path d="M154.367 25.715C155.788 24.188 155.788 21.7123 154.367 20.1854C152.945 18.6584 150.64 18.6584 149.219 20.1854L122.166 49.2416C120.745 50.7686 120.745 53.2443 122.166 54.7713C123.588 56.2982 125.893 56.2982 127.315 54.7713L154.367 25.715Z" fill="white"/>
<path d="M118.847 62.5685C120.282 61.0273 120.283 58.529 118.849 56.9867C117.437 55.4679 115.154 55.4386 113.709 56.9208L91.1995 80.0053C89.8854 81.353 89.7707 83.5649 90.9373 85.061L93.4781 87.5792C93.5198 87.6204 93.5585 87.6648 93.5942 87.7121C94.0358 88.2964 94.8512 88.3418 95.3467 87.8096L118.847 62.5685Z" fill="white"/>
<rect width="18.2017" height="19.5501" rx="9.10085" transform="matrix(-1 0 0 1 92.3262 53.5869)" fill="white"/>
<rect width="7.28068" height="38.1228" rx="3.64034" transform="matrix(-1 0 0 1 94.1436 11.5547)" fill="white"/>
<path d="M95.0552 84.5309C95.0552 82.0178 93.0179 79.9805 90.5047 79.9805H83.6791H76.8535C74.3404 79.9805 72.303 82.0178 72.303 84.5309V126.26C72.303 128.774 74.3404 130.811 76.8535 130.811H90.5047C93.0179 130.811 95.0552 128.774 95.0552 126.26V84.5309Z" fill="white"/>
<rect width="7.55518" height="61.9117" rx="3.77759" transform="matrix(-0.681416 -0.731897 -0.681416 0.731897 133.216 6.40039)" fill="white"/>
<rect width="7.55518" height="84.9958" rx="3.77759" transform="matrix(-0.681416 -0.731897 -0.681416 0.731897 166.223 32.8223)" fill="white"/>
<rect width="7.28068" height="46.9203" rx="3.64034" transform="matrix(-1 0 0 1 111.437 85.8457)" fill="white"/>
<path d="M24.205 17.3048C22.7833 15.7779 22.7833 13.3022 24.205 11.7752C25.6266 10.2483 27.9315 10.2483 29.3532 11.7752L56.4053 40.8315C57.827 42.3584 57.827 44.8341 56.4053 46.3611C54.9837 47.8881 52.6788 47.8881 51.2571 46.3611L24.205 17.3048Z" fill="white"/>
<path d="M12.0756 25.7834C10.6539 24.2564 10.6539 21.7807 12.0756 20.2537C13.4972 18.7268 15.8022 18.7268 17.2238 20.2537L44.276 49.31C45.6976 50.837 45.6976 53.3127 44.276 54.8396C42.8543 56.3666 40.5494 56.3666 39.1277 54.8396L12.0756 25.7834Z" fill="white"/>
<path d="M47.5999 62.6368C46.165 61.0957 46.1641 58.5973 47.5979 57.055C49.0098 55.5362 51.2926 55.507 52.7379 56.9891L75.2473 80.0736C76.5614 81.4213 76.6761 83.6332 75.5094 85.1294L72.9686 87.6476C72.927 87.6888 72.8882 87.7332 72.8525 87.7804C72.4109 88.3648 71.5956 88.4102 71.1001 87.878L47.5999 62.6368Z" fill="white"/>
<rect x="74.1211" y="53.6562" width="18.2017" height="19.5501" rx="9.10085" fill="white"/>
<rect x="72.3022" y="11.624" width="7.28068" height="38.1228" rx="3.64034" fill="white"/>
<path d="M71.3882 84.6003C71.3882 82.0871 73.4255 80.0498 75.9386 80.0498H82.7642H89.5899C92.103 80.0498 94.1403 82.0871 94.1403 84.6003V126.33C94.1403 128.843 92.103 130.88 89.5899 130.88H75.9386C73.4255 130.88 71.3882 128.843 71.3882 126.33V84.6003Z" fill="white"/>
<rect width="7.55518" height="61.9117" rx="3.77759" transform="matrix(0.681416 -0.731897 0.681416 0.731897 33.23 6.46973)" fill="white"/>
<rect width="7.55518" height="84.9958" rx="3.77759" transform="matrix(0.681416 -0.731897 0.681416 0.731897 0.404297 32.7939)" fill="white"/>
<rect x="55.0078" y="85.915" width="7.28068" height="46.9203" rx="3.64034" fill="white"/>
<path d="M153.632 86.3936H142.885V73.4057H144.96V84.4618H151.619V73.4057H153.694V84.4618H155.564V88.8185H153.632V86.3936ZM166.225 84.3385V86.0853C165.321 86.5374 163.8 86.7429 162.608 86.7429C158.601 86.7429 156.854 84.2974 156.854 81.2354C156.854 77.7624 159.423 75.8101 162.156 75.8101C165.65 75.8101 167.047 78.0706 167.047 80.7422C167.047 81.071 167.006 81.8108 166.965 82.2218H159.074C159.382 84.3385 161.252 84.9756 162.978 84.9756C163.944 84.9756 165.198 84.7906 166.225 84.3385ZM159.033 80.5983H164.951C164.951 78.6255 163.739 77.5774 162.156 77.5774C160.286 77.5774 159.135 78.7077 159.033 80.5983ZM178.742 76.1594V86.3936H176.604V82.1396H171.528V86.3936H169.391V76.1594H171.528V80.4134H176.604V76.1594H178.742ZM189.384 76.1594V77.9062H186.075V86.3936H183.938V77.9062H180.63V76.1594H189.384ZM193.383 85.551V90.2981H191.266V76.1594H192.931V77.9679C194.123 76.2827 195.787 75.8101 197.267 75.8101C200.411 75.8101 201.891 78.1323 201.891 81.0504C201.891 84.0919 200.144 86.7429 196.959 86.7429C195.911 86.7429 194.616 86.5374 193.383 85.551ZM196.568 84.8317C198.788 84.8112 199.692 83.1055 199.692 81.1326C199.692 79.1392 198.747 77.7418 196.568 77.7418C195.397 77.7418 194.102 78.3583 193.362 79.5503V83.722C194.349 84.544 195.376 84.8317 196.568 84.8317ZM214.74 86.7429C211.061 86.7018 209.294 84.1947 209.294 81.3381C209.294 78.1939 211.329 75.8101 214.74 75.8101C218.418 75.8512 220.186 78.3583 220.186 81.2148C220.186 84.3591 218.151 86.7429 214.74 86.7429ZM214.74 84.9756C217.206 84.9756 217.987 83.0438 217.987 81.3792C217.987 79.468 217.042 77.5774 214.74 77.5774C212.274 77.5774 211.493 79.5092 211.493 81.1737C211.493 83.0849 212.438 84.9756 214.74 84.9756ZM231.739 74.3304C228.656 75.0497 224.587 75.2552 223.991 79.1392C225.286 77.6596 227.033 77.2692 228.471 77.2692C230.958 77.2692 232.787 79.0159 232.787 81.6464C232.787 84.4413 230.753 86.7429 227.67 86.7429C223.868 86.7429 222.039 84.2974 222.039 80.8655C222.039 75.584 224.649 73.5701 231.739 72.337V74.3304ZM227.834 79.1187C226.56 79.1187 224.937 79.8174 224.033 81.2148C224.176 83.2288 225.081 84.8934 227.444 84.8934C229.643 84.8934 230.711 83.4754 230.711 81.7286C230.711 79.8791 229.581 79.1187 227.834 79.1187ZM237.073 85.551V90.2981H234.956V76.1594H236.621V77.9679C237.812 76.2827 239.477 75.8101 240.957 75.8101C244.101 75.8101 245.581 78.1323 245.581 81.0504C245.581 84.0919 243.834 86.7429 240.648 86.7429C239.6 86.7429 238.306 86.5374 237.073 85.551ZM240.258 84.8317C242.477 84.8112 243.382 83.1055 243.382 81.1326C243.382 79.1392 242.436 77.7418 240.258 77.7418C239.087 77.7418 237.792 78.3583 237.052 79.5503V83.722C238.039 84.544 239.066 84.8317 240.258 84.8317ZM256.394 86.3936H254.976L254.73 84.7906C253.641 86.1675 252.305 86.6196 250.743 86.6196C248.955 86.6196 247.023 85.5304 247.023 83.2904C247.023 80.7422 249.017 79.838 251.257 79.838C252.058 79.838 253.291 80.0846 254.298 80.475V79.5503C254.298 77.8857 252.654 77.6185 251.36 77.6185C250.229 77.6185 249.099 77.7829 248.113 78.2761V76.4266C249.181 76.0567 250.435 75.8101 251.586 75.8101C254.134 75.8101 256.394 76.5293 256.394 79.9202V86.3936ZM254.298 83.0644V82.2218C253.517 81.7286 252.51 81.4409 251.503 81.4409C250.147 81.4409 249.222 81.8725 249.222 83.0644C249.222 84.2152 249.818 84.9756 251.38 84.9756C252.49 84.9756 253.641 84.2563 254.298 83.0644ZM258.774 78.0706V76.2622C259.699 75.9539 261.712 75.8101 262.719 75.8101C265.042 75.8101 266.583 76.6732 266.583 78.4816C266.583 79.5914 266.008 80.5367 264.774 81.0915C266.151 81.3998 266.85 82.4684 266.85 83.7014C266.85 85.9414 264.816 86.7429 262.596 86.7429C261.466 86.7429 259.616 86.6196 258.692 86.2497V84.3591C259.637 84.7084 260.849 84.9345 261.939 84.9345C263.336 84.9345 264.754 84.6468 264.754 83.4343C264.754 82.5712 264.137 81.9752 262.514 81.9752H259.966V80.4956H262.493C263.932 80.4956 264.425 79.8996 264.425 79.0365C264.425 77.8651 263.151 77.6185 261.897 77.6185C260.932 77.6185 259.637 77.8651 258.774 78.0706ZM273.863 86.7429C270.184 86.7018 268.417 84.1947 268.417 81.3381C268.417 78.1939 270.451 75.8101 273.863 75.8101C277.541 75.8512 279.308 78.3583 279.308 81.2148C279.308 84.3591 277.274 86.7429 273.863 86.7429ZM273.863 84.9756C276.329 84.9756 277.11 83.0438 277.11 81.3792C277.11 79.468 276.164 77.5774 273.863 77.5774C271.397 77.5774 270.616 79.5092 270.616 81.1737C270.616 83.0849 271.561 84.9756 273.863 84.9756ZM285.955 86.5374C285.154 86.5374 283.037 86.5374 281.475 86.4347V76.1389C282.935 76.0361 284.661 76.0156 286.202 76.0156C288.36 76.0156 290.271 76.4266 290.271 78.5022C290.271 79.6736 289.696 80.475 288.606 81.0504C290.066 81.5025 290.703 82.3657 290.703 83.6192C290.703 85.2427 289.511 86.5374 285.955 86.5374ZM283.592 84.7906H286.408C287.846 84.7906 288.524 84.2358 288.524 83.3315C288.524 82.4684 287.887 81.9341 286.366 81.9341H283.592V84.7906ZM283.592 80.4134H286.14C287.517 80.4134 288.154 79.7969 288.154 78.9543C288.154 78.1528 287.682 77.6185 285.997 77.6185H283.592V80.4134ZM301.67 86.3936H300.252L300.005 84.7906C298.916 86.1675 297.58 86.6196 296.018 86.6196C294.23 86.6196 292.299 85.5304 292.299 83.2904C292.299 80.7422 294.292 79.838 296.532 79.838C297.333 79.838 298.567 80.0846 299.573 80.475V79.5503C299.573 77.8857 297.929 77.6185 296.635 77.6185C295.505 77.6185 294.374 77.7829 293.388 78.2761V76.4266C294.456 76.0567 295.71 75.8101 296.861 75.8101C299.409 75.8101 301.67 76.5293 301.67 79.9202V86.3936ZM299.573 83.0644V82.2218C298.793 81.7286 297.786 81.4409 296.779 81.4409C295.422 81.4409 294.498 81.8725 294.498 83.0644C294.498 84.2152 295.093 84.9756 296.655 84.9756C297.765 84.9756 298.916 84.2563 299.573 83.0644ZM313.765 76.1594V86.3936H311.627V82.1396H306.551V86.3936H304.414V76.1594H306.551V80.4134H311.627V76.1594H313.765ZM316.516 86.3936V76.1594H318.653V82.6945L325.27 76.1594H326.03V86.3936H323.893V79.8585L317.276 86.3936H316.516ZM332.888 83.4343H332.579L330.956 86.3936H328.449L330.483 83.0233C329.209 82.5095 328.346 81.5025 328.223 79.7763C328.223 77.5774 329.579 76.1594 332.148 76.1594H337.429V86.3936H335.292V83.2082C334.388 83.4137 333.586 83.4343 332.888 83.4343ZM335.292 81.7286V77.7624H332.806C331.388 77.7624 330.422 78.4816 330.422 79.8174C330.422 81.3381 331.737 81.9341 333.443 81.9341C333.936 81.9341 334.573 81.8725 335.292 81.7286ZM142.7 108.394V98.1594H144.837V104.694L151.454 98.1594H152.214V108.394H150.077V101.859L143.46 108.394H142.7ZM160.922 108.394V98.1594H163.059V104.694L169.677 98.1594H170.437V108.394H168.3V101.859L161.682 108.394H160.922ZM180.829 98.2622V100.03C180.151 99.8035 179.205 99.6185 178.363 99.6185C176.041 99.6185 174.787 100.852 174.787 103.256C174.787 105.66 176.246 106.914 178.301 106.914C179.247 106.914 180.212 106.729 180.952 106.4V108.188C179.986 108.599 178.836 108.743 178.014 108.743C174.931 108.743 172.588 106.729 172.588 103.338C172.588 99.9884 174.725 97.8101 178.116 97.8101C178.836 97.8101 179.986 97.9334 180.829 98.2622ZM190.482 98.2622V100.03C189.804 99.8035 188.859 99.6185 188.016 99.6185C185.694 99.6185 184.44 100.852 184.44 103.256C184.44 105.66 185.899 106.914 187.954 106.914C188.9 106.914 189.866 106.729 190.605 106.4V108.188C189.639 108.599 188.489 108.743 187.667 108.743C184.584 108.743 182.241 106.729 182.241 103.338C182.241 99.9884 184.379 97.8101 187.769 97.8101C188.489 97.8101 189.639 97.9334 190.482 98.2622ZM194.293 98.1594H202.062V108.394H200.027V99.9062H196.102C196.102 107.222 195.074 108.496 192.67 108.496C192.444 108.496 191.992 108.476 191.642 108.435L191.807 106.688C191.971 106.729 192.115 106.75 192.259 106.75C193.882 106.75 194.211 104.982 194.293 98.1594ZM213.588 106.339V108.085C212.683 108.537 211.163 108.743 209.971 108.743C205.963 108.743 204.217 106.297 204.217 103.235C204.217 99.7624 206.785 97.8101 209.519 97.8101C213.012 97.8101 214.41 100.071 214.41 102.742C214.41 103.071 214.369 103.811 214.327 104.222H206.436C206.744 106.339 208.614 106.976 210.341 106.976C211.307 106.976 212.56 106.791 213.588 106.339ZM206.395 102.598H212.314C212.314 100.625 211.101 99.5774 209.519 99.5774C207.649 99.5774 206.498 100.708 206.395 102.598ZM219.22 106.626H224.275V99.9062H220.412V100.564C220.412 102.352 220.165 104.674 219.22 106.626ZM226.104 108.394H217.843V110.819H216.034V106.626H217.247C218.315 104.407 218.48 101.386 218.48 98.6732V98.1594H226.309V106.626H227.912V110.819H226.104V108.394ZM234.749 108.743C231.07 108.702 229.303 106.195 229.303 103.338C229.303 100.194 231.337 97.8101 234.749 97.8101C238.427 97.8512 240.194 100.358 240.194 103.215C240.194 106.359 238.16 108.743 234.749 108.743ZM234.749 106.976C237.215 106.976 237.995 105.044 237.995 103.379C237.995 101.468 237.05 99.5774 234.749 99.5774C232.282 99.5774 231.502 101.509 231.502 103.174C231.502 105.085 232.447 106.976 234.749 106.976ZM246.841 108.537C246.04 108.537 243.923 108.537 242.361 108.435V98.1389C243.82 98.0361 245.547 98.0156 247.088 98.0156C249.246 98.0156 251.157 98.4266 251.157 100.502C251.157 101.674 250.582 102.475 249.492 103.05C250.951 103.503 251.588 104.366 251.588 105.619C251.588 107.243 250.397 108.537 246.841 108.537ZM244.478 106.791H247.293C248.732 106.791 249.41 106.236 249.41 105.332C249.41 104.468 248.773 103.934 247.252 103.934H244.478V106.791ZM244.478 102.413H247.026C248.403 102.413 249.04 101.797 249.04 100.954C249.04 100.153 248.568 99.6185 246.882 99.6185H244.478V102.413ZM262.556 108.394H261.138L260.891 106.791C259.802 108.167 258.466 108.62 256.904 108.62C255.116 108.62 253.185 107.53 253.185 105.29C253.185 102.742 255.178 101.838 257.418 101.838C258.219 101.838 259.452 102.085 260.459 102.475V101.55C260.459 99.8857 258.815 99.6185 257.521 99.6185C256.39 99.6185 255.26 99.7829 254.274 100.276V98.4266C255.342 98.0567 256.596 97.8101 257.747 97.8101C260.295 97.8101 262.556 98.5293 262.556 101.92V108.394ZM260.459 105.064V104.222C259.678 103.729 258.671 103.441 257.665 103.441C256.308 103.441 255.383 103.872 255.383 105.064C255.383 106.215 255.979 106.976 257.541 106.976C258.651 106.976 259.802 106.256 260.459 105.064ZM274.65 98.1594V108.394H272.513V104.14H267.437V108.394H265.3V98.1594H267.437V102.413H272.513V98.1594H274.65ZM277.401 108.394V98.1594H279.539V104.694L286.156 98.1594H286.916V108.394H284.779V101.859L278.162 108.394H277.401ZM293.774 105.434H293.465L291.842 108.394H289.335L291.369 105.023C290.095 104.51 289.232 103.503 289.109 101.776C289.109 99.5774 290.465 98.1594 293.034 98.1594H298.315V108.394H296.178V105.208C295.274 105.414 294.472 105.434 293.774 105.434ZM296.178 103.729V99.7624H293.691C292.273 99.7624 291.308 100.482 291.308 101.817C291.308 103.338 292.623 103.934 294.328 103.934C294.822 103.934 295.459 103.872 296.178 103.729ZM149.132 130.394V126.16H147.344L144.323 130.394H141.631L145.679 125.133L142.186 120.159H144.631L147.365 124.372H149.132V120.159H151.084V124.372H152.831C153.715 123.016 154.722 121.516 155.585 120.159H158.051L154.537 125.133L158.585 130.394H155.893L152.872 126.16H151.084V130.394H149.132ZM168.834 128.339V130.085C167.93 130.537 166.409 130.743 165.217 130.743C161.21 130.743 159.463 128.297 159.463 125.235C159.463 121.762 162.032 119.81 164.765 119.81C168.259 119.81 169.656 122.071 169.656 124.742C169.656 125.071 169.615 125.811 169.574 126.222H161.683C161.991 128.339 163.861 128.976 165.587 128.976C166.553 128.976 167.807 128.791 168.834 128.339ZM161.642 124.598H167.56C167.56 122.625 166.348 121.577 164.765 121.577C162.895 121.577 161.744 122.708 161.642 124.598ZM179.444 120.262V122.03C178.766 121.803 177.821 121.619 176.978 121.619C174.656 121.619 173.402 122.852 173.402 125.256C173.402 127.66 174.861 128.914 176.916 128.914C177.862 128.914 178.828 128.729 179.567 128.4V130.188C178.602 130.599 177.451 130.743 176.629 130.743C173.546 130.743 171.203 128.729 171.203 125.338C171.203 121.988 173.341 119.81 176.732 119.81C177.451 119.81 178.602 119.933 179.444 120.262ZM190.006 120.159V121.906H186.698V130.394H184.56V121.906H181.252V120.159H190.006ZM196.297 130.743C192.618 130.702 190.851 128.195 190.851 125.338C190.851 122.194 192.885 119.81 196.297 119.81C199.975 119.851 201.743 122.358 201.743 125.215C201.743 128.359 199.708 130.743 196.297 130.743ZM196.297 128.976C198.763 128.976 199.544 127.044 199.544 125.379C199.544 123.468 198.598 121.577 196.297 121.577C193.831 121.577 193.05 123.509 193.05 125.174C193.05 127.085 193.995 128.976 196.297 128.976ZM208.389 130.537C207.588 130.537 205.471 130.537 203.909 130.435V120.139C205.369 120.036 207.095 120.016 208.636 120.016C210.794 120.016 212.705 120.427 212.705 122.502C212.705 123.674 212.13 124.475 211.041 125.05C212.5 125.503 213.137 126.366 213.137 127.619C213.137 129.243 211.945 130.537 208.389 130.537ZM206.026 128.791H208.842C210.28 128.791 210.958 128.236 210.958 127.332C210.958 126.468 210.321 125.934 208.801 125.934H206.026V128.791ZM206.026 124.413H208.574C209.951 124.413 210.588 123.797 210.588 122.954C210.588 122.153 210.116 121.619 208.431 121.619H206.026V124.413ZM220.179 130.743C216.5 130.702 214.733 128.195 214.733 125.338C214.733 122.194 216.767 119.81 220.179 119.81C223.857 119.851 225.624 122.358 225.624 125.215C225.624 128.359 223.59 130.743 220.179 130.743ZM220.179 128.976C222.645 128.976 223.426 127.044 223.426 125.379C223.426 123.468 222.48 121.577 220.179 121.577C217.713 121.577 216.932 123.509 216.932 125.174C216.932 127.085 217.877 128.976 220.179 128.976ZM234.82 121.906H229.929V130.394H227.791V120.159H234.82V121.906ZM240.93 130.743C237.251 130.702 235.484 128.195 235.484 125.338C235.484 122.194 237.518 119.81 240.93 119.81C244.608 119.851 246.376 122.358 246.376 125.215C246.376 128.359 244.341 130.743 240.93 130.743ZM240.93 128.976C243.396 128.976 244.177 127.044 244.177 125.379C244.177 123.468 243.231 121.577 240.93 121.577C238.464 121.577 237.683 123.509 237.683 125.174C237.683 127.085 238.628 128.976 240.93 128.976ZM258.613 127.434H258.305L256.681 130.394H254.174L256.209 127.023C254.935 126.51 254.071 125.503 253.948 123.776C253.948 121.577 255.304 120.159 257.873 120.159H263.155V130.394H261.017V127.208C260.113 127.414 259.312 127.434 258.613 127.434ZM261.017 125.729V121.762H258.531C257.113 121.762 256.147 122.482 256.147 123.817C256.147 125.338 257.462 125.934 259.168 125.934C259.661 125.934 260.298 125.872 261.017 125.729ZM265.738 122.071V120.262C266.662 119.954 268.676 119.81 269.683 119.81C272.006 119.81 273.547 120.673 273.547 122.482C273.547 123.591 272.971 124.537 271.738 125.092C273.115 125.4 273.814 126.468 273.814 127.701C273.814 129.941 271.779 130.743 269.56 130.743C268.43 130.743 266.58 130.62 265.655 130.25V128.359C266.601 128.708 267.813 128.934 268.902 128.934C270.3 128.934 271.718 128.647 271.718 127.434C271.718 126.571 271.101 125.975 269.478 125.975H266.93V124.496H269.457C270.896 124.496 271.389 123.9 271.389 123.036C271.389 121.865 270.115 121.619 268.861 121.619C267.895 121.619 266.601 121.865 265.738 122.071ZM285.8 130.394V120.159H287.937V130.394H285.8ZM275.977 130.394V120.159H278.114V123.838C278.833 123.674 279.511 123.591 280.313 123.591C282.943 123.591 284.587 124.845 284.587 127.003C284.587 129.037 283.19 130.394 280.868 130.394H275.977ZM278.114 125.441V128.77H280.498C281.916 128.77 282.409 128.01 282.409 126.962C282.409 125.523 281.32 125.194 280.107 125.194C279.367 125.194 278.71 125.297 278.114 125.441ZM290.687 130.394V120.159H292.824V124.372H294.468L297.551 120.159H300.099L296.297 125.071L300.469 130.394H297.797L294.571 126.16H292.824V130.394H290.687ZM310.219 130.394H308.801L308.554 128.791C307.465 130.167 306.129 130.62 304.568 130.62C302.78 130.62 300.848 129.53 300.848 127.29C300.848 124.742 302.841 123.838 305.081 123.838C305.883 123.838 307.116 124.085 308.123 124.475V123.55C308.123 121.886 306.479 121.619 305.184 121.619C304.054 121.619 302.924 121.783 301.937 122.276V120.427C303.006 120.057 304.259 119.81 305.41 119.81C307.958 119.81 310.219 120.529 310.219 123.92V130.394ZM308.123 127.064V126.222C307.342 125.729 306.335 125.441 305.328 125.441C303.972 125.441 303.047 125.872 303.047 127.064C303.047 128.215 303.643 128.976 305.205 128.976C306.314 128.976 307.465 128.256 308.123 127.064Z" fill="white"/>
<a href="https://deafsign.ru/">
<rect fill="black" fill-opacity="0" y="0.169909" width="197.483" height="21.6602"/>
</a>
<a href="https://deafsign.ru/">
<rect fill="black" fill-opacity="0" y="22.1699" width="164.323" height="21.6602"/>
</a>
<a href="https://deafsign.ru/">
<rect fill="black" fill-opacity="0" y="44.1699" width="170.273" height="21.6602"/>
</a>
</svg>
