<svg width="449" height="177" viewBox="0 0 449 177" fill="none" xmlns="http://www.w3.org/2000/svg">
<path d="M134.635 54.2281H150.077V72.7822H147.112V56.9877H137.6V72.7822H134.635V54.2281ZM157.291 71.5786V78.3602H154.268V58.162H156.646V60.7455C158.348 58.3382 160.726 57.663 162.84 57.663C167.332 57.663 169.446 60.9804 169.446 65.1492C169.446 69.4942 166.95 73.2813 162.4 73.2813C160.902 73.2813 159.053 72.9877 157.291 71.5786ZM161.842 70.551C165.013 70.5217 166.304 68.085 166.304 65.2666C166.304 62.4189 164.954 60.4226 161.842 60.4226C160.168 60.4226 158.319 61.3033 157.262 63.0061V68.9657C158.671 70.14 160.139 70.551 161.842 70.551ZM172.358 72.7822V58.162H175.411V67.4978L184.865 58.162H185.951V72.7822H182.898V63.4464L173.444 72.7822H172.358ZM195.218 54.2868C195.218 55.4318 194.485 55.9896 193.633 55.9896C192.723 55.9896 191.989 55.4318 191.989 54.2868C191.989 53.0831 192.723 52.5253 193.633 52.5253C194.485 52.5253 195.218 53.0831 195.218 54.2868ZM202.352 54.2868C202.352 55.4318 201.589 55.9896 200.767 55.9896C199.916 55.9896 199.152 55.4318 199.152 54.2868C199.152 53.0831 199.916 52.5253 200.767 52.5253C201.589 52.5253 202.352 53.0831 202.352 54.2868ZM202.411 70.2868V72.7822C201.09 73.3987 198.976 73.7217 197.244 73.7217C191.519 73.7217 189.024 70.2281 189.024 65.8538C189.024 60.8923 192.694 58.1033 196.598 58.1033C201.589 58.1033 203.585 61.3033 203.585 65.1492C203.585 65.6189 203.556 66.6758 203.468 67.263H192.195C192.664 70.2868 195.277 71.1969 197.773 71.1969C199.152 71.1969 200.914 70.962 202.411 70.2868ZM192.136 64.9437H200.591C200.591 62.1253 198.859 60.6281 196.598 60.6281C193.897 60.6281 192.283 62.2428 192.136 64.9437ZM222.141 63.9455L216.387 72.5767L210.457 63.9455L209.018 72.7822H205.994L208.901 58.1327H209.958L216.387 68.0556L222.816 58.1327H223.844L226.78 72.7822H223.756L222.141 63.9455ZM243.141 58.162V72.7822H240.088V66.7052H232.837V72.7822H229.784V58.162H232.837V64.2391H240.088V58.162H243.141ZM259.607 72.7822H257.582L257.229 70.4923C255.673 72.4593 253.765 73.1052 251.534 73.1052C248.98 73.1052 246.22 71.5492 246.22 68.3492C246.22 64.7088 249.068 63.4171 252.268 63.4171C253.413 63.4171 255.174 63.7694 256.613 64.3272V63.0061C256.613 60.6281 254.264 60.2464 252.415 60.2464C250.8 60.2464 249.185 60.4813 247.776 61.1859V58.5437C249.303 58.0153 251.093 57.663 252.738 57.663C256.378 57.663 259.607 58.6905 259.607 63.5345V72.7822ZM256.613 68.0263V66.8226C255.497 66.118 254.059 65.707 252.62 65.707C250.682 65.707 249.361 66.3235 249.361 68.0263C249.361 69.6703 250.213 70.7565 252.444 70.7565C254.029 70.7565 255.673 69.729 256.613 68.0263ZM269.399 68.5547H268.959L266.64 72.7822H263.058L265.965 67.9675C264.144 67.2336 262.911 65.7951 262.735 63.329C262.735 60.1877 264.673 58.162 268.343 58.162H275.888V72.7822H272.834V68.2318C271.543 68.5253 270.398 68.5547 269.399 68.5547ZM272.834 66.118V60.452H269.282C267.256 60.452 265.877 61.4795 265.877 63.3877C265.877 65.5602 267.755 66.4116 270.192 66.4116C270.897 66.4116 271.807 66.3235 272.834 66.118ZM134.371 103.782V89.162H137.424V95.1804H139.773L144.176 89.162H147.817L142.385 96.1786L148.345 103.782H144.529L139.919 97.7345H137.424V103.782H134.371ZM156.379 104.281C151.124 104.223 148.6 100.641 148.6 96.5602C148.6 92.0685 151.506 88.663 156.379 88.663C161.635 88.7217 164.159 92.3033 164.159 96.3841C164.159 100.876 161.253 104.281 156.379 104.281ZM156.379 101.757C159.902 101.757 161.018 98.9969 161.018 96.6189C161.018 93.8886 159.668 91.1877 156.379 91.1877C152.857 91.1877 151.741 93.9474 151.741 96.3253C151.741 99.0556 153.091 101.757 156.379 101.757ZM182.462 94.9455L176.708 103.577L170.778 94.9455L169.339 103.782H166.316L169.222 89.1327H170.279L176.708 99.0556L183.138 89.1327H184.165L187.101 103.782H184.077L182.462 94.9455ZM190.105 103.782V89.162H193.158V98.4978L202.611 89.162H203.697V103.782H200.644V94.4464L191.191 103.782H190.105ZM218.543 89.3088V91.8336C217.574 91.5107 216.224 91.2464 215.02 91.2464C211.703 91.2464 209.912 93.0079 209.912 96.4428C209.912 99.8776 211.996 101.668 214.932 101.668C216.282 101.668 217.662 101.404 218.719 100.935V103.489C217.339 104.076 215.695 104.281 214.521 104.281C210.117 104.281 206.771 101.404 206.771 96.5602C206.771 91.7749 209.824 88.663 214.668 88.663C215.695 88.663 217.339 88.8391 218.543 89.3088ZM232.333 89.3088V91.8336C231.364 91.5107 230.014 91.2464 228.81 91.2464C225.493 91.2464 223.702 93.0079 223.702 96.4428C223.702 99.8776 225.786 101.668 228.722 101.668C230.073 101.668 231.452 101.404 232.509 100.935V103.489C231.129 104.076 229.485 104.281 228.311 104.281C223.907 104.281 220.561 101.404 220.561 96.5602C220.561 91.7749 223.614 88.663 228.458 88.663C229.485 88.663 231.129 88.8391 232.333 89.3088ZM235.518 103.782V89.162H238.571V98.4978L248.024 89.162H249.11V103.782H246.057V94.4464L236.604 103.782H235.518ZM258.906 99.5547H258.466L256.147 103.782H252.565L255.471 98.9675C253.651 98.2336 252.418 96.7951 252.242 94.329C252.242 91.1877 254.18 89.162 257.849 89.162H265.394V103.782H262.341V99.2318C261.049 99.5253 259.904 99.5547 258.906 99.5547ZM262.341 97.118V91.452H258.789C256.763 91.452 255.383 92.4795 255.383 94.3877C255.383 96.5602 257.262 97.4116 259.699 97.4116C260.404 97.4116 261.314 97.3235 262.341 97.118ZM151.927 123.01L145.468 134.342L138.774 123.01L137.013 134.782H133.872L137.13 116.228H138.011L145.468 129.146L152.866 116.228H153.747L157.152 134.782H154.011L151.927 123.01ZM160.724 134.782V116.228H173.025V118.9H163.69V134.782H160.724ZM179.191 134.782V118.9H173.172V116.228H188.174V118.9H182.156V134.782H179.191ZM189.679 116.228H193.143L198.897 127.648L203.947 116.228H207.088L200.541 130.173C198.78 134.078 196.549 135.076 194.2 135.076C193.525 135.076 192.879 134.988 192.321 134.87V132.199C192.644 132.257 193.055 132.346 193.378 132.346C194.435 132.346 195.874 132.551 197.341 130.584L189.679 116.228ZM216.854 134.782V120.162H219.907V129.498L229.36 120.162H230.446V134.782H227.393V125.446L217.94 134.782H216.854ZM249.578 125.946L243.824 134.577L237.894 125.946L236.455 134.782H233.431L236.338 120.133H237.395L243.824 130.056L250.253 120.133H251.281L254.217 134.782H251.193L249.578 125.946ZM260.362 133.138C260.362 134.606 259.393 135.311 258.307 135.311C257.191 135.311 256.193 134.606 256.193 133.138C256.193 131.612 257.191 130.907 258.307 130.907C259.393 130.907 260.362 131.612 260.362 133.138ZM284.619 124.067V116.228H287.584V134.782H284.619V126.885H274.813V134.782H271.848V116.228H274.813V124.067H284.619ZM294.938 133.138C294.938 134.606 293.969 135.311 292.882 135.311C291.767 135.311 290.769 134.606 290.769 133.138C290.769 131.612 291.767 130.907 292.882 130.907C293.969 130.907 294.938 131.612 294.938 133.138ZM298.907 126.885V124.067H308.331C307.715 119.722 304.72 118.635 301.285 118.635C299.582 118.635 298.085 118.929 296.764 119.457V116.815C298.379 116.169 300.052 115.905 301.667 115.905C308.331 115.905 311.355 120.191 311.355 125.212C311.355 131.23 308.419 135.311 302.078 135.311C299.729 135.311 298.173 134.958 296.705 134.43V131.817C298.144 132.316 299.7 132.58 301.579 132.58C305.924 132.58 307.92 130.496 308.243 126.885H298.907ZM317.644 133.138C317.644 134.606 316.675 135.311 315.589 135.311C314.473 135.311 313.475 134.606 313.475 133.138C313.475 131.612 314.473 130.907 315.589 130.907C316.675 130.907 317.644 131.612 317.644 133.138ZM332.096 118.9V123.714C333.035 123.597 334.65 123.479 335.648 123.479C339.787 123.479 343.545 124.507 343.545 129.028C343.545 132.698 341.079 134.782 336.969 134.782H329.13V116.228H341.96V118.9H332.096ZM332.096 126.327V132.111H336.705C339.464 132.111 340.404 130.643 340.404 129.087C340.404 126.591 338.319 126.092 335.853 126.092C334.62 126.092 333.329 126.18 332.096 126.327ZM358.919 134.782H356.893L356.541 132.492C354.985 134.459 353.077 135.105 350.846 135.105C348.292 135.105 345.532 133.549 345.532 130.349C345.532 126.709 348.38 125.417 351.58 125.417C352.725 125.417 354.486 125.769 355.925 126.327V125.006C355.925 122.628 353.576 122.246 351.727 122.246C350.112 122.246 348.497 122.481 347.088 123.186V120.544C348.615 120.015 350.405 119.663 352.049 119.663C355.69 119.663 358.919 120.69 358.919 125.535V134.782ZM355.925 130.026V128.823C354.809 128.118 353.371 127.707 351.932 127.707C349.994 127.707 348.673 128.324 348.673 130.026C348.673 131.67 349.525 132.757 351.756 132.757C353.341 132.757 354.985 131.729 355.925 130.026ZM367.214 133.197L361.137 120.162H364.543L368.653 130.085L372.704 120.162H375.757L366.686 140.36H363.544L367.214 133.197ZM392.468 125.946L386.714 134.577L380.784 125.946L379.345 134.782H376.321L379.228 120.133H380.285L386.714 130.056L393.143 120.133H394.171L397.107 134.782H394.083L392.468 125.946ZM412.646 134.782H410.621L410.268 132.492C408.712 134.459 406.804 135.105 404.573 135.105C402.019 135.105 399.259 133.549 399.259 130.349C399.259 126.709 402.107 125.417 405.307 125.417C406.452 125.417 408.213 125.769 409.652 126.327V125.006C409.652 122.628 407.303 122.246 405.454 122.246C403.839 122.246 402.224 122.481 400.815 123.186V120.544C402.342 120.015 404.132 119.663 405.777 119.663C409.417 119.663 412.646 120.69 412.646 125.535V134.782ZM409.652 130.026V128.823C408.536 128.118 407.098 127.707 405.659 127.707C403.721 127.707 402.4 128.324 402.4 130.026C402.4 131.67 403.252 132.757 405.483 132.757C407.068 132.757 408.712 131.729 409.652 130.026ZM429.925 120.162V134.782H426.871V128.705H419.62V134.782H416.567V120.162H419.62V126.239H426.871V120.162H429.925ZM446.391 134.782H444.365L444.013 132.492C442.457 134.459 440.548 135.105 438.317 135.105C435.763 135.105 433.003 133.549 433.003 130.349C433.003 126.709 435.851 125.417 439.051 125.417C440.196 125.417 441.957 125.769 443.396 126.327V125.006C443.396 122.628 441.047 122.246 439.198 122.246C437.583 122.246 435.968 122.481 434.559 123.186V120.544C436.086 120.015 437.877 119.663 439.521 119.663C443.161 119.663 446.391 120.69 446.391 125.535V134.782ZM443.396 130.026V128.823C442.28 128.118 440.842 127.707 439.403 127.707C437.466 127.707 436.145 128.324 436.145 130.026C436.145 131.67 436.996 132.757 439.227 132.757C440.813 132.757 442.457 131.729 443.396 130.026Z" fill="white"/>
<path d="M80.3846 52.4455C86.2638 56.1587 90.5958 60.336 92.7527 67.1344C93.1896 69.4096 93.2078 71.5301 93.1805 73.8418C93.1714 74.6517 93.1623 75.4708 93.1532 76.299C93.1441 76.9179 93.135 77.5367 93.1259 78.1647C93.6992 78.192 94.2635 78.2102 94.855 78.2375C102.463 78.7381 107.651 80.4854 112.975 86.0734C117.808 92.0163 119.018 97.9592 118.608 105.467C117.098 105.813 115.578 106.123 114.058 106.378C112.538 104.867 112.702 102.828 112.402 100.744C111.428 95.1925 109.644 91.8525 105.521 87.9482C101.69 85.3999 98.6228 84.5353 94.036 84.5353C94.0269 85.7185 94.0269 86.9016 94.0178 88.1302C93.9996 92.535 93.9541 96.9399 93.8904 101.345C93.8722 103.247 93.8631 105.158 93.854 107.06C93.8448 109.799 93.8084 112.548 93.7629 115.287C93.772 116.134 93.772 116.98 93.7811 117.854C93.6901 121.876 93.499 124.643 90.9235 127.838C87.6926 130.868 85.836 131.269 81.3857 131.205C78.2186 130.786 76.3711 129.385 74.014 127.31C71.3383 122.022 71.8934 116.498 71.9025 110.7C71.8934 109.617 71.8752 108.534 71.857 107.424C71.857 97.9319 73.0766 91.2336 79.6747 84.235C82.0683 81.9871 84.2798 79.9849 87.6653 79.9849C87.4014 72.9135 86.8098 66.6793 81.8134 61.3007C76.9809 57.0051 72.7125 55.8947 66.3965 56.0404C61.3455 56.641 57.2774 58.534 53.6461 62.0652C49.1867 69.4369 48.8408 76.0988 48.5314 84.5353C49.4142 84.5717 49.4142 84.5717 50.3243 84.6081C55.5573 84.9449 59.0247 85.5091 63.0929 89.0858C66.1599 93.1539 67.7343 96.2573 67.798 101.345C67.8162 102.573 67.8162 102.573 67.8344 103.829C67.8435 104.712 67.8526 105.595 67.8526 106.514C67.8617 107.424 67.8708 108.334 67.8799 109.272C67.889 111.21 67.8981 113.14 67.9072 115.069C67.9254 118.018 67.9618 120.966 68.0074 123.915C68.0165 125.79 68.0256 127.674 68.0256 129.548C68.0438 130.422 68.062 131.305 68.0711 132.215C68.0529 138.586 66.8697 141.625 62.4103 146.249C59.3979 147.841 56.4492 148.351 53.0818 148.242C48.1947 146.558 45.3643 143.746 43.0708 139.141C42.9889 137.575 42.9616 136.001 42.9616 134.427C42.9616 133.444 42.9616 132.461 42.9616 131.441C42.9707 130.377 42.9707 129.312 42.9798 128.211C42.9798 127.128 42.9798 126.036 42.9798 124.916C42.9889 121.43 42.998 117.945 43.0071 114.459C43.0162 112.093 43.0162 109.736 43.0253 107.379C43.0344 101.581 43.0526 95.7932 43.0708 89.9959C41.0413 90.1233 39.0118 90.2507 36.9823 90.3781C35.8538 90.4509 34.7253 90.5237 33.5604 90.5965C26.7529 91.2518 21.4289 93.0993 16.6782 98.1867C13.2289 103.984 12.4918 109.299 12.4827 115.943C12.4645 116.816 12.4463 117.69 12.4372 118.6C12.3916 121.367 12.3735 124.143 12.3552 126.909C12.3279 128.802 12.3006 130.695 12.2733 132.588C12.2005 137.202 12.155 141.807 12.1277 146.422C10.4168 147.386 10.4168 147.386 8.48736 148.242C7.8867 147.941 7.28604 147.641 6.66718 147.332C6.56707 141.534 6.50336 135.746 6.46696 129.949C6.44875 127.974 6.42145 126.008 6.38505 124.042C6.34865 121.203 6.32134 118.354 6.31224 115.515C6.28494 114.65 6.26674 113.777 6.24854 112.885C6.24854 105.695 7.95951 99.1696 12.3552 93.3541C20.1547 85.7276 27.9906 84.326 38.5841 84.4443C40.0766 84.4716 41.5692 84.4989 43.0708 84.5353C43.0253 83.6707 42.9798 82.7971 42.9434 81.9052C42.6704 72.3128 43.2347 64.2494 50.0603 56.8321C58.5879 49.2056 69.9367 46.985 80.3846 52.4455ZM84.3344 87.7571C83.7792 88.385 83.2241 89.013 82.6598 89.6592C82.1047 90.2689 81.5495 90.8787 80.9762 91.5157C76.8443 97.3403 77.3449 103.72 77.3631 110.591C77.354 111.62 77.3358 112.648 77.3176 113.713C77.3176 114.696 77.3176 115.688 77.3176 116.707C77.3176 117.608 77.3176 118.509 77.3085 119.437C77.6998 122.195 78.5462 123.442 80.3846 125.489C82.5142 125.262 84.6347 124.953 86.7552 124.579C88.2933 121.503 87.7745 118.009 87.7472 114.623C87.7472 113.813 87.7472 113.012 87.7472 112.175C87.7381 109.599 87.729 107.024 87.7199 104.448C87.7108 102.701 87.7108 100.953 87.7017 99.206C87.6926 94.9286 87.6835 90.6421 87.6653 86.3555C85.7177 86.1462 85.7177 86.1462 84.3344 87.7571ZM48.5314 89.9959C48.4586 96.8034 48.4131 103.602 48.3767 110.409C48.3676 112.721 48.3494 115.033 48.3221 117.353C48.2857 120.675 48.2766 123.997 48.2584 127.328C48.2493 128.365 48.2311 129.394 48.222 130.468C48.222 131.432 48.222 132.397 48.222 133.389C48.2129 134.245 48.2038 135.091 48.2038 135.965C48.5951 138.677 49.3687 139.905 51.2617 141.871C54.5835 142.954 56.0851 143.082 59.2796 141.589C61.3546 140.224 61.3546 140.224 62.1828 138.231C62.2738 136.966 62.3102 135.692 62.3284 134.417C62.3375 133.635 62.3466 132.852 62.3557 132.033C62.3557 130.759 62.3557 130.759 62.3648 129.457C62.3648 128.584 62.3739 127.701 62.383 126.8C62.3921 124.943 62.3921 123.096 62.4012 121.239C62.4103 118.4 62.4376 115.569 62.4649 112.73C62.474 110.928 62.474 109.126 62.474 107.324C62.4922 106.478 62.5013 105.631 62.5104 104.767C62.4922 99.3061 61.8096 96.0844 57.9144 92.0436C55.7666 90.8787 54.4288 90.6421 52.0352 90.3781C50.8794 90.2507 49.7236 90.1324 48.5314 89.9959Z" fill="white"/>
<path d="M74.9211 24.4714C77.9335 26.9833 79.1985 28.3029 79.8447 32.1526C79.9994 36.612 79.7901 40.1068 76.7413 43.5833C73.5923 46.1953 70.8257 46.796 66.7302 46.6413C63.6814 46.0952 61.7611 44.6573 59.4495 42.6733C56.9559 38.6506 56.9286 34.5279 57.6293 29.932C59.2038 26.6101 61.4972 24.8355 64.7371 23.1063C68.5686 22.5056 71.399 22.8515 74.9211 24.4714ZM64 29.932C62.5529 32.4529 62.5529 32.4529 62.1798 35.3925C63.1991 37.5676 64.1274 39.1603 65.8202 40.8531C70.3888 40.5982 70.3888 40.5982 74.011 38.1228C74.5388 35.0103 74.5388 35.0103 74.011 31.7522C71.9724 29.4678 71.9724 29.4678 69.4605 28.1118C67.0579 28.1118 65.9931 28.5668 64 29.932Z" fill="white"/>
<path d="M112.12 55.5281C115.515 58.5223 116.625 61.4346 117.18 65.885C116.616 70.4263 114.623 72.9473 111.556 76.2327C108.48 77.7708 105.549 77.7344 102.218 77.2611C98.0681 75.5592 96.0841 73.011 94.0273 69.0703C93.2446 63.6279 94.6098 60.6701 97.6677 56.329C102.127 53.5077 107.315 53.6442 112.12 55.5281ZM100.462 61.4983C99.2967 64.0284 99.0146 65.4117 99.4878 68.1602C100.798 70.4536 100.798 70.4536 103.128 71.8006C106.432 71.8734 106.432 71.8734 109.499 70.8905C111.665 68.2512 111.665 68.2512 111.101 64.9112C110.7 61.744 110.7 61.744 108.589 59.9694C104.157 59.396 104.157 59.396 100.462 61.4983Z" fill="white"/>
<path d="M34.8758 58.1453C38.1794 60.6753 40.4091 63.1326 41.2464 67.2462C40.937 71.6055 40.2817 74.5815 37.151 77.7122C33.3195 80.0148 30.2343 80.5881 25.7749 79.9875C22.0708 78.0672 20.0595 76.5473 18.4941 72.7067C17.7934 69.0664 17.7115 65.8446 19.6226 62.5956C24.0821 57.2261 28.1593 56.4252 34.8758 58.1453ZM25.429 64.1155C23.5451 66.9458 23.3904 68.4566 23.9547 71.7966C25.8841 73.9353 27.0854 74.4541 29.9249 74.8727C32.1637 74.6907 32.1637 74.6907 33.7382 73.3893C35.076 71.5145 35.6494 70.4679 35.7859 68.1563C34.9304 65.6171 34.9304 65.6171 33.0556 63.6058C29.752 62.4136 28.405 62.1588 25.429 64.1155Z" fill="white"/>
</svg>
