<svg width="179" height="158" viewBox="0 0 179 158" fill="none" xmlns="http://www.w3.org/2000/svg">
<path fill-rule="evenodd" clip-rule="evenodd" d="M139.489 95.3751L139.626 95.7855L141.952 101.257C142.636 102.762 143.046 103.446 143.456 103.856C143.73 104.13 144.003 104.13 144.414 104.13L147.56 103.993C147.286 103.446 146.876 102.898 146.602 102.488L142.362 94.2808L142.225 93.8704L142.499 93.5968L146.466 87.3046H142.772C142.909 87.7149 143.046 88.1253 143.046 88.6725C143.046 89.0828 142.909 89.4932 142.772 89.7668C142.636 90.0404 142.499 90.3139 142.362 90.4507L139.626 95.1015L139.489 95.3751ZM166.026 87.3046C166.026 87.4414 166.163 87.715 166.163 87.8518C166.3 88.3989 166.437 89.0829 166.437 89.9036V101.394C166.437 102.078 166.437 102.762 166.163 103.446C166.163 103.582 166.026 103.856 166.026 103.993H170.267C170.267 103.856 170.13 103.582 170.13 103.446C169.993 102.898 169.856 102.215 169.856 101.394V96.743V96.0591H170.54H173.96H174.644V96.743V101.394C174.644 102.078 174.644 102.762 174.37 103.446C174.37 103.582 174.234 103.856 174.234 103.993H178.474C178.474 103.856 178.337 103.582 178.337 103.446C178.2 102.898 178.064 102.215 178.064 101.394V89.9036C178.064 89.2197 178.064 88.5357 178.337 87.8518C178.337 87.715 178.474 87.4414 178.474 87.3046H174.234C174.37 87.4414 174.37 87.715 174.37 87.8518C174.507 88.3989 174.644 89.0829 174.644 89.9036V93.3233V94.0072H173.96H170.54H169.856V93.3233V89.9036C169.856 89.2197 169.856 88.5357 170.13 87.8518C170.13 87.715 170.267 87.4414 170.267 87.3046H166.026ZM152.347 95.2383C152.347 92.7761 152.758 91.4082 153.305 90.4507C153.989 89.4932 154.81 89.2197 155.494 89.2197C157.135 89.2197 158.093 90.4507 158.503 91.9554C158.913 93.3233 159.05 94.8279 159.05 95.9222C159.05 97.1533 158.913 98.5212 158.64 99.7523C158.229 101.12 157.272 102.215 155.767 102.215C153.989 102.215 153.168 100.847 152.758 99.2052C152.348 97.7005 152.347 96.059 152.347 95.2383ZM148.654 95.7855C148.654 98.9316 149.475 101.12 150.843 102.488C152.074 103.856 153.852 104.403 155.63 104.403C157.545 104.403 159.324 103.719 160.692 102.215C162.059 100.71 162.88 98.5212 162.88 95.5119C162.88 92.9129 162.196 90.8611 160.965 89.3564C159.734 87.8517 158.093 87.031 155.904 87.031C153.715 87.031 151.937 87.8517 150.706 89.3564C149.338 90.8611 148.654 93.0497 148.654 95.7855ZM134.565 87.3046C134.565 87.4414 134.702 87.715 134.702 87.8518C134.839 88.3989 134.975 89.0829 134.975 89.9036V101.394C134.975 102.078 134.975 102.762 134.702 103.446C134.702 103.582 134.565 103.856 134.565 103.993H138.805C138.805 103.856 138.669 103.582 138.669 103.446C138.532 102.898 138.395 102.215 138.395 101.394V97.2901V96.0591V94.8279V92.6394V90.0403C138.395 89.3564 138.395 88.6725 138.532 88.1253C138.532 87.8517 138.669 87.715 138.669 87.4414L134.565 87.3046ZM122.117 92.3658C122.117 92.0922 122.117 91.8186 122.254 91.6818C122.254 91.4082 122.391 91.2715 122.391 90.9979C122.801 89.9036 123.622 88.9461 124.716 88.9461C124.853 88.9461 124.853 88.9461 124.853 88.9461C125.127 88.9461 125.4 89.0829 125.537 89.0829C125.811 89.2196 125.947 89.3564 126.084 89.4932C126.768 90.1771 127.042 91.4082 127.042 92.229V92.9129H126.358H122.528H121.707L122.117 92.3658ZM130.735 94.9647C130.735 93.3233 130.325 91.4083 129.504 89.9036C128.683 88.3989 127.315 87.1678 125.263 87.031C125.127 87.031 124.853 87.031 124.716 87.031C122.665 87.031 121.023 88.1253 119.929 89.63C118.834 91.2715 118.15 93.4601 118.15 95.7855C118.15 98.2476 118.698 100.436 119.929 101.941C121.16 103.446 122.938 104.403 125.537 104.403C126.358 104.403 127.042 104.403 127.862 104.13C128.546 103.993 129.23 103.719 129.914 103.309L130.461 100.71C129.914 101.12 129.367 101.257 128.82 101.531C127.862 101.941 127.179 102.078 126.495 102.078H126.358C124.853 102.078 123.622 101.257 122.938 100.163C122.254 99.0684 121.844 97.5637 121.844 96.0591C121.844 95.9223 121.844 95.7854 121.844 95.6487V94.9647H122.528H130.735ZM102.693 87.3046C102.693 87.4414 102.83 87.715 102.83 87.8518C102.967 88.3989 103.104 89.0829 103.104 89.9036V101.394C103.104 102.078 103.104 102.762 102.83 103.446C102.83 103.582 102.693 103.856 102.693 103.993H106.934C106.934 103.856 106.797 103.582 106.797 103.446C106.66 102.898 106.524 102.215 106.524 101.394V96.743V96.0591H107.207H110.627H111.311V96.743V101.394C111.311 102.078 111.311 102.762 111.038 103.446C111.038 103.582 110.901 103.856 110.901 103.993H115.141C115.141 103.856 115.004 103.582 115.004 103.446C114.868 102.898 114.731 102.215 114.731 101.394V89.9036C114.731 89.2197 114.731 88.5357 115.004 87.8518C115.004 87.715 115.141 87.4414 115.141 87.3046H110.901C110.901 87.4414 111.038 87.715 111.038 87.8518C111.174 88.3989 111.311 89.0829 111.311 89.9036V93.3233V94.0072H110.627H107.207H106.524V93.3233V89.9036C106.524 89.2197 106.524 88.5357 106.797 87.8518C106.797 87.715 106.934 87.4414 106.934 87.3046H102.693ZM75.7462 92.3658C75.7462 92.0922 75.7462 91.8186 75.883 91.6818C75.883 91.4082 76.0198 91.2715 76.0198 90.9979C76.4302 89.9036 77.2509 88.9461 78.3452 88.9461C78.482 88.9461 78.482 88.9461 78.482 88.9461C78.7556 88.9461 79.0291 89.0829 79.1659 89.0829C79.4395 89.2196 79.5763 89.3564 79.7131 89.4932C80.397 90.1771 80.6706 91.4082 80.6706 92.229V92.9129H79.9867H76.1566H75.3359L75.7462 92.3658ZM84.3639 94.9647C84.3639 93.3233 83.9535 91.4083 83.1328 89.9036C82.312 88.3989 80.9442 87.1678 78.8924 87.031C78.7556 87.031 78.482 87.031 78.3452 87.031C76.2934 87.031 74.6519 88.1253 73.5576 89.63C72.4633 91.2715 71.7794 93.4601 71.7794 95.7855C71.7794 98.2476 72.3265 100.436 73.5576 101.941C74.7887 103.446 76.5669 104.403 79.1659 104.403C79.9866 104.403 80.6706 104.403 81.4913 104.13C82.1753 103.993 82.8592 103.719 83.5432 103.309L84.2271 100.71C83.6799 101.12 83.1328 101.257 82.5856 101.531C81.6281 101.941 80.9442 102.078 80.2603 102.078H80.1235C79.3027 102.078 78.6188 101.804 78.0716 101.531C77.5245 101.12 76.9773 100.71 76.7038 100.026C76.0198 98.7948 75.6094 97.2901 75.7462 95.6487V94.9647H76.4302H84.3639ZM81.9017 51.7397L41.0021 51.8765L41.4125 70.89H41.5492C41.5492 69.1118 41.5492 67.6071 41.686 66.2392C41.8228 64.5978 42.0964 63.2299 42.5068 62.1356C43.0539 60.4941 43.8746 58.9895 44.9689 57.7584C45.2425 57.4848 45.3793 57.348 45.6529 57.0744C45.9264 56.8009 46.2 56.6641 46.4736 56.5273C47.4311 55.9802 48.5254 55.433 49.8933 55.1594C51.1244 54.8858 52.6291 54.7491 54.2705 54.7491H57.5534H58.2374V55.433L58.3742 95.6487C58.3742 99.3419 58.3742 102.215 58.2374 104.266C58.2374 104.54 58.2374 104.95 58.1006 105.361C58.1006 105.771 57.9638 106.045 57.9638 106.318C57.9638 106.455 57.9638 106.455 57.9638 106.592C57.827 107.549 57.5534 108.233 57.4166 108.917C57.1431 109.601 56.8695 110.148 56.4591 110.559C55.912 111.106 55.228 111.516 54.2705 111.79C53.4498 112.063 52.4923 112.063 51.2612 112.063H50.8508V112.884H73.6944V112.063H72.4633C71.369 112.063 70.2747 112.063 69.454 111.79C68.4965 111.653 67.6758 111.242 67.1286 110.695C66.5814 110.148 66.0343 109.601 65.6239 108.917C65.2136 108.233 64.94 107.549 64.8032 106.728C64.6664 105.908 64.5296 104.403 64.3928 102.351C64.2561 100.299 64.256 97.5637 64.256 94.2808L63.9825 55.7066V55.0226H64.6664H69.0436C70.9587 55.0226 72.6001 55.1594 73.968 55.433C75.3359 55.7066 76.4302 56.2537 77.1141 56.8009C77.9348 57.6216 78.6188 58.4423 79.1659 59.6734C79.7131 60.7677 80.1234 61.9988 80.5338 63.5035C80.9442 65.2817 81.2178 67.06 81.3545 69.1118C81.3545 69.5222 81.3545 69.9325 81.4913 70.3429C81.4913 70.6165 81.4913 70.7532 81.4913 71.0268H81.6281L81.9017 51.7397ZM99.137 86.4839L98.3162 88.3989C98.0427 89.0829 97.7691 89.63 97.6323 90.0403C97.4955 90.3139 97.2219 90.9979 96.8116 91.6818C96.2644 92.9129 95.5805 94.144 94.8965 95.3751C95.4437 96.4694 95.8541 97.4269 96.4012 98.5212C97.0852 99.8891 97.7691 101.394 98.453 102.898C98.5898 103.172 98.7266 103.582 99.0002 103.856H94.623C94.623 103.582 94.4862 103.309 94.4862 103.172C94.4862 103.035 94.4862 103.035 94.3494 102.898C94.3494 102.762 94.3494 102.762 94.2126 102.762C93.8022 101.667 93.2551 100.436 92.7079 99.3419C92.4343 99.7523 92.2976 100.163 92.024 100.573C90.7929 102.898 89.425 105.087 88.0571 107.412C76.8405 125.605 63.5721 139.831 50.714 148.312C37.4456 157.066 24.7243 159.802 15.1492 154.467C14.8756 154.331 14.602 154.194 14.3284 154.057C11.4559 152.279 8.99369 149.817 7.07866 146.807C5.16363 143.935 3.79576 140.378 2.83825 136.548C-1.94933 117.261 4.4797 86.6207 20.8943 57.0744C22.1253 54.7491 23.4932 52.5604 24.8611 50.2351C36.0777 32.0422 49.3462 17.8163 62.2042 9.33546C75.4727 0.581026 88.1939 -2.15473 97.7691 3.18C98.0427 3.31678 98.3163 3.45358 98.5898 3.59036C100.915 5.09503 102.967 7.01006 104.745 9.33546C106.387 11.6609 107.755 14.2598 108.849 17.4059C114.184 32.3158 111.721 55.8433 101.326 81.1491L97.0852 79.3709C107.071 55.1594 109.396 32.863 104.472 18.9106C103.514 16.3116 102.42 13.9862 100.915 12.0712C99.5473 10.1562 97.9059 8.65151 95.9909 7.55721C95.8541 7.42042 95.5805 7.28363 95.4437 7.14684C87.51 2.76962 76.4302 5.23182 64.6664 13.1655C52.4923 21.3728 39.6342 35.0516 28.828 52.6972C27.4601 54.8858 26.229 57.0745 24.9979 59.2631C8.9937 87.8518 2.83823 117.124 7.35223 135.317C8.17296 138.737 9.40407 141.746 11.0455 144.208C12.5502 146.671 14.4652 148.586 16.7906 149.954C16.9274 150.09 17.201 150.227 17.3378 150.227C25.2715 154.604 36.3513 152.142 48.1151 144.208C60.2892 136.001 73.1473 122.322 83.9535 104.677C85.3214 102.488 86.5525 100.299 87.7836 98.1109C88.6043 96.743 89.425 95.2383 90.109 93.7336C89.425 92.229 88.7411 90.7243 88.0571 89.2197C87.9204 88.8093 87.6468 88.3989 87.51 88.1253C87.3732 87.8517 87.2364 87.5782 86.9629 87.1678H91.0665C91.2033 87.5782 91.3401 87.8518 91.6136 88.5357C91.6136 88.6725 91.7504 88.6725 91.7504 88.8093C91.8872 89.0828 92.024 89.4932 92.1608 89.7668C92.1608 89.63 92.2976 89.63 92.2976 89.4932C92.4344 89.0828 92.7079 88.6725 93.1183 87.8518C93.3919 87.1678 93.6655 86.6207 93.8023 86.3471L99.137 86.4839Z" fill="white" stroke="white" stroke-width="0.733945"/>
</svg>
