<svg width="166" height="33" viewBox="0 0 166 33" fill="none" xmlns="http://www.w3.org/2000/svg">
<path d="M25.5886 26.0642V30.6722C22.6126 32.1122 19.4446 32.6882 16.1326 32.6882C6.86856 32.6882 0.532559 25.9202 0.532559 16.8962C0.532559 7.29622 7.10856 0.960218 16.9486 0.960218C19.8286 0.960218 22.5166 1.44022 25.3486 2.64022V7.00822C22.7566 5.95222 20.0206 5.56822 17.2846 5.56822C10.3246 5.56822 5.76456 9.69622 5.76456 16.8962C5.95656 24.1442 10.8046 28.0802 16.8526 28.0802C19.7806 28.0802 23.1886 27.2162 25.5886 26.0642ZM30.2292 31.8242V7.92022H35.2212V23.1842L50.6772 7.92022H52.4532V31.8242H47.4612V16.5602L32.0052 31.8242H30.2292ZM83.7338 17.3762L74.3258 31.4882L64.6298 17.3762L62.2778 31.8242H57.3338L62.0858 7.87222H63.8138L74.3258 24.0962L84.8378 7.87222H86.5178L91.3178 31.8242H86.3738L83.7338 17.3762ZM114.661 7.92022V12.0002H106.933V31.8242H101.941V12.0002H94.2132V7.92022H114.661ZM138.053 27.0242V31.1042C135.941 32.1602 132.389 32.6402 129.605 32.6402C120.245 32.6402 116.165 26.9282 116.165 19.7762C116.165 11.6642 122.165 7.10422 128.549 7.10422C136.709 7.10422 139.973 12.3842 139.973 18.6242C139.973 19.3922 139.877 21.1202 139.781 22.0802H121.349C122.069 27.0242 126.437 28.5122 130.469 28.5122C132.725 28.5122 135.653 28.0802 138.053 27.0242ZM121.253 18.2882H135.077C135.077 13.6802 132.245 11.2322 128.549 11.2322C124.181 11.2322 121.493 13.8722 121.253 18.2882ZM156.225 19.7282L165.105 31.8242H159.681L153.537 23.2322L147.681 31.8242H141.921L150.705 19.8722L141.681 7.92022H147.393L153.489 16.7522L159.537 7.92022H164.961L156.225 19.7282Z" fill="white"/>
</svg>
